<svg width="90" height="54" viewBox="0 0 90 54" fill="none" xmlns="http://www.w3.org/2000/svg">
<g clip-path="url(#clip0_176_952)">
<path d="M0 37.2164C0 35.4157 1.07188 33.788 2.72602 33.0766L17.5139 26.7168C17.9388 26.534 18.412 26.8456 18.412 27.3081V53.4979L3.82214 53.3448C1.70479 53.3226 0 51.5999 0 49.4824V37.2164Z" fill="#805555"/>
<path d="M23.0472 21.5665L44.287 0.882524C44.79 0.392614 45.5928 0.396144 46.0916 0.890461L66.9528 21.5665V53.4979H51.1159V38.9179C51.1159 38.2544 51.0294 37.5939 50.8584 36.9528L50.6009 36.2446L50.279 35.6009L50.0215 35.2146L49.6996 34.8283L49.3133 34.4421L48.9914 34.1202L48.5408 33.7339L48.1545 33.4764L47.8326 33.2833L47.6395 33.1545L47.382 33.0258L47.0601 32.897L46.6738 32.7682L46.1588 32.6395L45.6438 32.5751H45.3219H44.8712L44.3562 32.6395L43.7124 32.7682L43.2618 32.897C43.0047 32.9828 42.7539 33.0867 42.5114 33.2078L42.3605 33.2833L41.9099 33.5408L41.5236 33.7983L41.073 34.1846L40.5579 34.6996L40.1717 35.2146L39.8498 35.794L39.6567 36.2446L39.3348 37.1459L39.2704 37.5322L39.2463 37.6767C39.1767 38.0947 39.1398 38.5176 39.1362 38.9414L39.0129 53.4979H23.0472V21.5665Z" fill="#805555"/>
<path d="M90 37.2164C90 35.4157 88.9281 33.788 87.274 33.0766L72.486 26.7168C72.0612 26.534 71.588 26.8456 71.588 27.3081V53.4979L86.1779 53.3448C88.2953 53.3226 90 51.5999 90 49.4824V37.2164Z" fill="#805555"/>
</g>
<defs>
<clipPath id="clip0_176_952">
<rect width="90" height="53.5622" fill="white"/>
</clipPath>
</defs>
</svg>
